<?xml version="1.0" ?><svg id="Layer_1" style="enable-background:new 0 0 512 512;" version="1.1" viewBox="0 0 512 512" xml:space="preserve" xmlns="http://www.w3.org/2000/svg" xmlns:xlink="http://www.w3.org/1999/xlink"><path fill="#9397b4" d="M387.78699,118.588C352.58499,83.38675,305.78278,64,256,64s-96.58499,19.38675-131.787,54.588  s-54.588,82.00426-54.588,131.787v68.25c0,13.70325,9.852,25.14151,22.8435,27.621C94.98775,365.54498,111.52525,380.5,131.5,380.5  c21.711,0,39.375-17.664,39.375-39.375v-90c0-21.711-17.664-39.375-39.375-39.375c-9.6405,0-18.47775,3.48825-25.3305,9.26175  c4.3635-22.57275,13.78725-43.76025,27.89851-62.44875c0.68849,0.0495,1.38075,0.08325,2.07825,0.08325  c7.51274,0,14.5755-2.92575,19.88774-8.23801C182.73476,123.70525,218.23749,109,256,109s73.26526,14.70525,99.96674,41.4075  c5.31226,5.313,12.375,8.23875,19.88776,8.23875c0.69751,0,1.38901-0.03375,2.07825-0.08325  c14.11127,18.68925,23.53577,39.87825,27.89926,62.4525c-6.85349-5.77426-15.69073-9.2655-25.332-9.2655  c-21.711,0-39.375,17.664-39.375,39.375v90c0,21.711,17.664,39.375,39.375,39.375c11.01001,0,20.97226-4.54877,28.125-11.85825  v6.23325c0,15.50851-12.61649,28.125-28.125,28.125h-79.51575c-5.13599-6.82648-13.30273-11.25-22.48425-11.25h-45  c-15.5085,0-28.125,12.61649-28.125,28.125S217.9915,448,233.5,448h45c9.18152,0,17.34827-4.42352,22.48425-11.25H380.5  c34.11749,0,61.875-27.75751,61.875-61.875v-124.5C442.375,200.59225,422.98825,153.79001,387.78699,118.588z M131.5,223  c15.5085,0,28.125,12.6165,28.125,28.125v90c0,15.50851-12.6165,28.125-28.125,28.125s-28.125-12.61649-28.125-28.125V307  c0-3.10724-2.51775-5.625-5.625-5.625s-5.625,2.51776-5.625,5.625v27.5325c-6.54675-2.32202-11.25-8.57477-11.25-15.9075v-45  c0-7.33276,4.70325-13.58551,11.25-15.9075V284.5c0,3.10724,2.51775,5.625,5.625,5.625s5.625-2.51776,5.625-5.625v-33.375  C103.375,235.6165,115.9915,223,131.5,223z M92.1865,246.05501c-4.17825,0.84149-8.0235,2.6115-11.3115,5.08575V250.375  c0-38.1525,12.27225-73.48875,33.0645-102.285l2.31825,2.3175c1.90725,1.90799,4.044,3.50249,6.34275,4.76924  C103.4725,181.873,93.025,213.06174,92.1865,246.05501z M363.922,142.453C335.095,113.626,296.767,97.75,256,97.75  s-79.095,15.876-107.922,44.703c-3.1875,3.1875-7.42426,4.94325-11.93175,4.94325c-4.50826,0-8.74575-1.75575-11.9325-4.944  l-3.34725-3.34724C153.01151,100.1335,201.65425,75.25,256,75.25s102.98849,24.8835,135.13428,63.855l-3.34802,3.34801  c-3.18674,3.1875-7.42422,4.94325-11.9325,4.94325C371.34698,147.39626,367.1095,145.6405,363.922,142.453z M395.74225,150.40825  l2.31824-2.31825c20.79227,28.797,33.06451,64.13251,33.06451,102.285v0.771c-3.28876-2.47501-7.13251-4.24649-11.31149-5.08875  c-0.83853-32.994-11.28601-64.1835-30.414-90.88051C391.69901,153.91,393.83499,152.31549,395.74225,150.40825z M419.875,257.7175  c6.54675,2.32202,11.25,8.57477,11.25,15.9075v45c0,7.33276-4.70325,13.58551-11.25,15.9075V257.7175z M380.5,369.25  c-15.50851,0-28.125-12.61649-28.125-28.125v-90c0-15.5085,12.61649-28.125,28.125-28.125s28.125,12.6165,28.125,28.125v90  C408.625,356.63351,396.00851,369.25,380.5,369.25z M278.5,436.75h-45c-9.3045,0-16.875-7.5705-16.875-16.875  S224.1955,403,233.5,403h45c9.3045,0,16.875,7.5705,16.875,16.875S287.8045,436.75,278.5,436.75z M380.5,425.5h-74.44125  c0.37048-1.81799,0.56625-3.69901,0.56625-5.625s-0.19574-3.80701-0.56625-5.625H380.5c21.711,0,39.375-17.664,39.375-39.375  v-28.69574c4.155-0.84674,7.97775-2.61301,11.25-5.07526v33.771C431.125,402.79001,408.41501,425.5,380.5,425.5z"/></svg>